<svg xmlns="http://www.w3.org/2000/svg" width="418.559" height="106.442" viewBox="0 0 418.559 106.442">
  <g id="グループ_213" data-name="グループ 213" transform="translate(-2294 921)">
    <path id="パス_95" data-name="パス 95" d="M67.734-219.854a45.111,45.111,0,0,1-6.643,1.605,37.9,37.9,0,0,0-10.517,3.819,62.429,62.429,0,0,1-7.473,3.321c-2.768.609-3.487,1.605-3.764,5.259-.111,1.882-.443,3.543-.72,3.709a3.832,3.832,0,0,0-.5,2.325,33.287,33.287,0,0,1-.83,5.591c-.5,1.937-.941,4.373-1.107,5.369a18.956,18.956,0,0,1-1.052,3.819,19.462,19.462,0,0,0-.941,5.757c0,3.487-.277,5.314-1.55,11.182a82.384,82.384,0,0,0-.83,8.691c-.277,5.757-1.107,9.134-2.6,10.075-1.439.941-4.927,10.019-4.927,12.842a2.622,2.622,0,0,1-.554,1.827c-3.155,1.937-5.48,16.939-3.045,19.651,1.273,1.384,2.325,1.384,5.314,0a15.088,15.088,0,0,1,5.2-1.107,24.33,24.33,0,0,0,6.366-1.162c10.019-3.321,16.883-5.812,22.419-8.082,10.185-4.207,15.112-5.7,21.035-6.31a53.365,53.365,0,0,0,6.31-.83,10.542,10.542,0,0,1,3.653.609,8.55,8.55,0,0,0,4.594.332,32.189,32.189,0,0,1,7.141-.221c4.705.277,6.31.111,11.514-1.162,3.377-.83,7.085-1.882,8.3-2.325s5.314-1.661,9.134-2.657c13.174-3.6,14.448-4.041,20.979-8.082,5.037-3.045,7.86-6.089,11.458-12.123,4.65-7.75,6.31-10.517,8.414-13.728,1.439-2.27,1.827-3.377,1.661-4.982-.166-1.882,0-2.159,1.605-2.878,2.712-1.218,3.764-5.757,2.325-9.964-1-2.878-.387-3.487,2.27-2.159a11.4,11.4,0,0,0,9.521.166c2.159-.886,2.823-.941,4.1-.387,1.384.664,1.439.886,1.107,3.266-.221,1.661-1.716,5.093-4.1,9.521-6.089,11.292-11.4,23.138-12.012,26.9a34.31,34.31,0,0,1-1.107,4.262,27.324,27.324,0,0,0-1.162,5.535c-.443,4.207.664,6.919,3.986,9.8,1.993,1.771,2.159,1.827,6.255,1.605a14.781,14.781,0,0,0,6.975-1.55c9.853-4.982,14.282-7.584,17.6-10.241a26.932,26.932,0,0,1,4.318-3.045,4.8,4.8,0,0,1,1.771,1.495c.664.775,1.937,2.27,2.823,3.321a26.3,26.3,0,0,0,5.48,4.152c3.377,1.937,4.484,2.325,7.86,2.546,3.543.166,4.152.055,7.2-1.605a44.948,44.948,0,0,0,4.982-2.989,35.5,35.5,0,0,1,4.65-2.768c3.487-1.771,12.012-7.2,12.51-8.026.609-1-.83-4.262-2.1-4.816-.72-.332-2.878-.387-5.369-.111-6.421.609-7.694.111-10.628-4.428-2.546-4.041-2.048-8.193,2.38-18.655,2.878-6.919,5.425-11.514,8.912-15.942,2.436-3.1,2.6-4.1.83-5.757-1.495-1.384-4.705-1.605-10.13-.609a75.657,75.657,0,0,0-13.562,4.152c-1.661.83-4.65,5.314-8.912,13.34a97.146,97.146,0,0,1-5.148,8.746,58.709,58.709,0,0,0-3.543,5.7c-.664,1.329-2.823,4.871-4.816,7.86a56.879,56.879,0,0,0-3.543,5.923c0,1.052-3.487,5.148-4.318,5.148-.554,0-1.384-.941-1.937-2.1-.83-1.716-.886-2.6-.387-5.646,1.162-7.916,1.495-9.244,2.823-11.348a49.263,49.263,0,0,0,2.657-5.148c1.439-3.432,6.919-13.174,8.359-14.78.5-.609,2.27-3.1,3.875-5.535s3.543-5.148,4.262-5.978c1.55-1.937,1.661-4.318.166-5.646s-9.355-1.771-14.614-.886c-2.048.387-7.694.886-12.566,1.162-4.871.332-9.41.83-10.075,1.162-1.771.941-3.709,2.823-3.709,3.6,0,.886-3.764,6.477-4.761,7.03-1.273.72-2.823-.055-3.543-1.827a17.75,17.75,0,0,0-4.539-6.089c-1.162-.886-2.878-1.218-9.521-1.716-7.085-.554-8.967-.5-14.337.332-6.034.941-8.857,1.937-13.673,4.982-1.052.664-4.318,2.491-7.2,3.986-2.878,1.55-6.975,3.709-9.023,4.816a42.726,42.726,0,0,0-12.51,10.683,14.6,14.6,0,0,0-1.716,2.768c0,.277-.886,2.712-1.937,5.535a60.545,60.545,0,0,0-2.159,6.366,64,64,0,0,1-2.491,8.248,14.142,14.142,0,0,0-.886,5.591c.221,2.1.055,2.657-1.107,3.764-1.218,1.162-2.325,1.384-9.023,1.993-12.621,1.162-14.06,1.329-19.1,2.27-4.484.886-4.927.886-5.757,0-.83-.83-.83-1.329.332-7.141,1.384-6.919,4.152-15.831,5.7-18.433a7.089,7.089,0,0,0,1-2.934,29.923,29.923,0,0,1,1.439-5.535,48.461,48.461,0,0,0,1.661-5.923c.111-.941,1.052-4.927,2.159-8.857a60.3,60.3,0,0,0,1.937-9.576,9.762,9.762,0,0,1,1.329-4.705,15.826,15.826,0,0,0,1.716-4.539,36.294,36.294,0,0,1,.941-4.041c.72-2.325.111-4.927-1.384-5.868A9.858,9.858,0,0,0,67.734-219.854Zm78.6,33.434a2.678,2.678,0,0,1,.055,1.605,26.137,26.137,0,0,0-.5,5.812l-.166,5.314h1.827c2.048,0,3.1,1.384,1.771,2.436a6.35,6.35,0,0,0-1.495,2.159,3.234,3.234,0,0,1-2.325,1.882c-2.27.443-3.709,2.38-4.152,5.7-.664,4.816-1.993,6.753-5.978,8.8-2.214,1.107-4.152,1.716-5.148,1.605-1.439-.166-1.661-.5-2.6-3.764a22.016,22.016,0,0,1-.664-8.026c.72-9.632,3.93-14.78,13.839-22.585C143.736-187.748,145.784-188.135,146.337-186.419Zm-22.2,25.352a10.756,10.756,0,0,1-.775,3.93c-.72,2.436-.886,3.875-.554,4.816,1,2.6-1.495,2.325-2.712-.332-.83-1.993-.387-6.809.83-8.746.664-1,1-1.107,1.882-.664A6.231,6.231,0,0,1,124.14-161.067Z" transform="translate(2274.331 -700.584)"/>
    <path id="パス_96" data-name="パス 96" d="M584.118-199.036a39.938,39.938,0,0,0-9.964,3.487c-3.044,1.439-6.975,3.155-8.635,3.709a14.058,14.058,0,0,0-4.318,2.214c-1.328,1.162-1.328,1.162-.166,1.495.664.166,1.162.111,1.162-.166,0-.221.609-.277,1.384-.111,1.771.332,1.716.664-.277,2.6a33.564,33.564,0,0,0-4.1,6.31c-1.329,2.6-3.432,6.31-4.705,8.192l-2.27,3.432-4.262.886a38.919,38.919,0,0,0-13.174,4.927,85.416,85.416,0,0,1-14.392,7.141c-2.1.775-6.421,2.546-9.576,3.93a45.936,45.936,0,0,1-6.477,2.546,8.7,8.7,0,0,1-2.712-1c-4.982-2.436-3.653-9.3,4.428-23.47,3.377-5.923,7.03-10.407,8.469-10.407a8.2,8.2,0,0,0,2.823-1.107c1.052-.554,3.543-1.882,5.48-2.878,4.539-2.325,6.7-4.373,6.7-6.2,0-3.6-4.207-4.705-14.669-3.764-5.978.5-6.753.72-11.514,3.1a90.18,90.18,0,0,0-8.857,5.037c-2.1,1.384-5.812,5.978-6.144,7.307a33.065,33.065,0,0,1-3.045,6.643,135.031,135.031,0,0,0-7.8,17.381c-3.155,9.41-2.325,15.223,2.823,19.1a12.519,12.519,0,0,1,2.712,2.491c0,.554,3.211,1.55,4.705,1.329,5.425-.664,16.994-3.155,20.647-4.484,2.048-.775,8.193-3.653,13.673-6.421,10.407-5.259,23.194-10.517,25.851-10.683.277,0,.554,3.377.664,7.473.221,8.691.83,10.9,4.484,15.776a23.009,23.009,0,0,1,2.491,3.709c0,1,4.871,5.369,6.532,5.923,1.55.5,2.823.332,8.026-1.107,3.432-.886,7.584-2.1,9.244-2.712,1.661-.554,5.535-1.55,8.58-2.27,7.085-1.55,14.448-4.1,16.606-5.757a23.238,23.238,0,0,1,5.757-2.491,63.133,63.133,0,0,0,18.6-9.355c5.812-4.484,10.462-9.908,11.348-13.119a7.761,7.761,0,0,1,1.218-2.768c.941-.609-.221-9.189-1.882-14.06-2.048-5.757-3.377-8.469-5.037-10.019-1.55-1.495-7.805-4.65-10.683-5.425a15.814,15.814,0,0,1-4.152-1.937,14.626,14.626,0,0,0-7.694-3.266c-1.384-.166-5.591-.72-9.41-1.162C594.3-200.088,589.931-200.088,584.118-199.036Zm21.035,9.189c5.978,4.428,10.019,10.019,10.794,14.78.775,4.705.609,14-.277,17.437-1.605,6.144-4.484,9.632-11.4,13.728-8.635,5.148-12.732,7.141-16.385,7.971-9.466,2.048-9.355,2.048-12.4.72-5.812-2.491-9.355-9.41-8.691-17.1.83-9.687,9.521-27.733,15.057-31.109a7.432,7.432,0,0,1,3.211-1,6.639,6.639,0,0,0,2.491-.5,34.732,34.732,0,0,1,5.093-1.384c3.155-.72,4.705-1.384,6.366-2.823C601.61-191.342,602.994-191.508,605.153-189.847Zm16.828,12.565c.664,1.329.664,1.771.055,2.768-.72,1.107-2.27-.166-2.27-1.882C619.767-178.5,621.04-179,621.981-177.282Zm.554,7.085a10.65,10.65,0,0,0,.332,1.661c.387,1.495-.443,1.661-1.661.387-1.218-1.218-1.107-2.436.221-2.436C622.036-170.584,622.535-170.418,622.535-170.2Zm15.721,4.152c.221.941-.055,1.55-1.052,2.436a5.288,5.288,0,0,0-1.771,3.155c-.277,1.993-1.384,2.712-2.1,1.495-.554-.83.83-6.2,1.827-7.362C636.318-167.65,637.812-167.484,638.255-166.045Z" transform="translate(2070.756 -709.777)"/>
  </g>
</svg>
